# This file uses centimeters as units for non-parametric coordinates.

mtllib skybox.mtl
g default
v -1198.199707 1198.199707 1197.658936
v -1198.199707 -1198.199707 1197.658936
v 1198.199707 1198.199707 1197.658936
v 1198.199707 -1198.199707 1197.658936
v 1198.199707 1198.199707 -1198.740356
v 1198.199707 -1198.199707 -1198.740356
v -1198.199707 1198.199707 -1198.740356
v -1198.199707 -1198.199707 -1198.740356
vt 0.375000 0.000000
vt 0.625000 0.000000
vt 0.375000 0.250000
vt 0.625000 0.250000
vt 0.375000 0.500000
vt 0.625000 0.500000
vt 0.375000 0.750000
vt 0.625000 0.750000
vt 0.375000 1.000000
vt 0.625000 1.000000
vt 0.875000 0.000000
vt 0.875000 0.250000
vt 0.125000 0.000000
vt 0.125000 0.250000
vn 0.666667 -0.666667 -0.333333
vn -0.408248 -0.408248 -0.816497
vn 0.408248 0.408248 -0.816497
vn -0.666667 0.666667 -0.333333
vn -0.666667 -0.666667 0.333333
vn -0.408248 0.408248 0.816497
vn 0.408248 -0.408248 0.816497
vn 0.666667 0.666667 0.333333
s 1
g Skybox
usemtl blinn1SG
f 1/1/1 3/3/2 2/2/3
f 2/2/3 3/3/2 4/4/4
f 3/3/2 5/5/5 4/4/4
f 4/4/4 5/5/5 6/6/6
f 5/5/5 7/7/7 6/6/6
f 6/6/6 7/7/7 8/8/8
f 7/7/7 1/9/1 8/8/8
f 8/8/8 1/9/1 2/10/3
f 2/2/3 4/4/4 8/11/8
f 8/11/8 4/4/4 6/12/6
f 7/13/7 5/14/5 1/1/1
f 1/1/1 5/14/5 3/3/2
